<svg width="100%" viewBox="0 0 680 510" xmlns="http://www.w3.org/2000/svg">
  <defs>
    <g id="ff" fill="none" stroke="#059669" stroke-width="9" stroke-linecap="round" stroke-linejoin="round">
      <path d="M98 34 C98 24 87 22 80 28 C77 31 76 35 76 40 V94 C76 114 60 122 44 120"/>
      <path d="M62 56 H92"/>
      <path d="M44 120 C36 112 36 102 44 102 C52 102 52 112 44 120 C36 128 36 138 44 138 C52 138 52 128 44 120 Z"/>
    </g>
  </defs>

  <rect x="0" y="0" width="680" height="510" rx="18" fill="#FBFBF9"/>

  <!-- large -->
  <rect x="70" y="40" width="230" height="250" rx="16" fill="#FFFFFF" stroke="#ECECE5" stroke-width="1"/>
  <use href="#ff" transform="translate(118,85)"/>
  <text x="185" y="320" text-anchor="middle" font-size="15" fill="#2F3B36" font-family="'Helvetica Neue',Arial,sans-serif">tail meets the dead center</text>

  <!-- favicon -->
  <rect x="380" y="40" width="230" height="250" rx="16" fill="#FFFFFF" stroke="#ECECE5" stroke-width="1"/>
  <use href="#ff" transform="translate(465,129) scale(0.45)"/>
  <text x="495" y="320" text-anchor="middle" font-size="15" fill="#2F3B36" font-family="'Helvetica Neue',Arial,sans-serif">at favicon size</text>

  <!-- wordmark, geometric sans -->
  <use href="#ff" transform="translate(34,355) scale(0.8)"/>
  <text x="116" y="430" font-size="62" fill="#059669" font-weight="500" font-family="'Futura','Century Gothic','Trebuchet MS','Segoe UI',sans-serif">orever funded</text>
  <text x="70" y="480" font-size="14" fill="#8A8F8B" font-family="'Helvetica Neue',Arial,sans-serif">wordmark · geometric sans</text>
</svg>
